<mxfile host="Electron" agent="Mozilla/5.0 (Windows NT 10.0; Win64; x64) AppleWebKit/537.36 (KHTML, like Gecko) draw.io/28.0.6 Chrome/138.0.7204.100 Electron/37.2.3 Safari/537.36" version="28.0.6">
  <diagram name="Page-1" id="-zYkxpiepyWVaeCBZvoU">
    <mxGraphModel dx="2276" dy="841" grid="1" gridSize="10" guides="1" tooltips="1" connect="1" arrows="1" fold="1" page="1" pageScale="1" pageWidth="850" pageHeight="1100" math="0" shadow="0">
      <root>
        <mxCell id="0" />
        <mxCell id="1" parent="0" />
        <mxCell id="a-rNxq47jJGG1cDdPVG0-2" value="&lt;font style=&quot;font-size: 24px;&quot;&gt;&lt;b&gt;LANDLORD PORTAL&lt;/b&gt;&lt;/font&gt;" style="text;html=1;align=center;verticalAlign=middle;whiteSpace=wrap;rounded=0;" vertex="1" parent="1">
          <mxGeometry x="274" y="60" width="302" height="30" as="geometry" />
        </mxCell>
        <mxCell id="a-rNxq47jJGG1cDdPVG0-3" value="" style="rounded=1;whiteSpace=wrap;html=1;fillColor=#9B89B3;movable=1;resizable=1;rotatable=1;deletable=1;editable=1;locked=0;connectable=1;" vertex="1" parent="1">
          <mxGeometry x="274" y="145.5" width="300" height="335" as="geometry" />
        </mxCell>
        <mxCell id="a-rNxq47jJGG1cDdPVG0-5" value="" style="group" vertex="1" connectable="0" parent="1">
          <mxGeometry x="456" y="160" width="90" height="60" as="geometry" />
        </mxCell>
        <mxCell id="a-rNxq47jJGG1cDdPVG0-6" value="" style="ellipse;shape=cloud;whiteSpace=wrap;html=1;fillColor=#FCF8FF;strokeColor=#5927E5;" vertex="1" parent="a-rNxq47jJGG1cDdPVG0-5">
          <mxGeometry y="10" width="90" height="50" as="geometry" />
        </mxCell>
        <mxCell id="a-rNxq47jJGG1cDdPVG0-7" value="" style="html=1;verticalLabelPosition=bottom;align=center;labelBackgroundColor=#ffffff;verticalAlign=top;strokeWidth=2;strokeColor=#9B89B3;shadow=0;dashed=0;shape=mxgraph.ios7.icons.home;fillColor=#FCF8FF;" vertex="1" parent="a-rNxq47jJGG1cDdPVG0-5">
          <mxGeometry x="27.5" width="39" height="35.5" as="geometry" />
        </mxCell>
        <mxCell id="a-rNxq47jJGG1cDdPVG0-8" value="&lt;div align=&quot;justify&quot;&gt;&lt;span style=&quot;color: rgb(230, 230, 230);&quot;&gt;Username&amp;nbsp; &amp;nbsp; &amp;nbsp; &amp;nbsp; &amp;nbsp; &amp;nbsp; &amp;nbsp; &amp;nbsp; &amp;nbsp; &amp;nbsp; &amp;nbsp; &amp;nbsp;&lt;/span&gt;&lt;/div&gt;" style="rounded=1;whiteSpace=wrap;html=1;" vertex="1" parent="1">
          <mxGeometry x="300" y="230" width="150" height="30" as="geometry" />
        </mxCell>
        <mxCell id="a-rNxq47jJGG1cDdPVG0-9" value="&lt;span style=&quot;color: rgb(230, 230, 230);&quot;&gt;Password&amp;nbsp; &amp;nbsp; &amp;nbsp; &amp;nbsp; &amp;nbsp; &amp;nbsp; &amp;nbsp; &amp;nbsp; &amp;nbsp; &amp;nbsp; &amp;nbsp; &amp;nbsp;&lt;/span&gt;" style="rounded=1;whiteSpace=wrap;html=1;" vertex="1" parent="1">
          <mxGeometry x="300" y="291" width="150" height="30" as="geometry" />
        </mxCell>
        <mxCell id="a-rNxq47jJGG1cDdPVG0-10" value="Username:" style="text;html=1;align=center;verticalAlign=middle;whiteSpace=wrap;rounded=0;" vertex="1" parent="1">
          <mxGeometry x="310" y="200" width="60" height="30" as="geometry" />
        </mxCell>
        <mxCell id="a-rNxq47jJGG1cDdPVG0-11" value="Password" style="text;html=1;align=center;verticalAlign=middle;whiteSpace=wrap;rounded=0;" vertex="1" parent="1">
          <mxGeometry x="300" y="268" width="60" height="30" as="geometry" />
        </mxCell>
        <mxCell id="a-rNxq47jJGG1cDdPVG0-12" value="Login" style="ellipse;whiteSpace=wrap;html=1;" vertex="1" parent="1">
          <mxGeometry x="375" y="330" width="100" height="60" as="geometry" />
        </mxCell>
        <mxCell id="a-rNxq47jJGG1cDdPVG0-13" value="&lt;div&gt;New here and want to join our community?&lt;/div&gt;&lt;div&gt;Contact us at tenantSeek@example.com and book a call!&lt;/div&gt;" style="text;html=1;align=center;verticalAlign=middle;whiteSpace=wrap;rounded=0;" vertex="1" parent="1">
          <mxGeometry x="370" y="400.5" width="110" height="80" as="geometry" />
        </mxCell>
        <mxCell id="a-rNxq47jJGG1cDdPVG0-14" value="&lt;img src=&quot;data:image/svg+xml;base64,PHN2ZyB4bWxucz0iaHR0cDovL3d3dy53My5vcmcvMjAwMC9zdmciIHN0eWxlPSJiYWNrZ3JvdW5kOiB0cmFuc3BhcmVudDsgYmFja2dyb3VuZC1jb2xvcjogdHJhbnNwYXJlbnQ7IiB4bWxuczp4bGluaz0iaHR0cDovL3d3dy53My5vcmcvMTk5OS94bGluayIgdmVyc2lvbj0iMS4xIiB3aWR0aD0iNDBweCIgaGVpZ2h0PSIyM3B4IiB2aWV3Qm94PSItMC41IC0wLjUgNDAgMjMiIGNvbnRlbnQ9IiZsdDtteEdyYXBoTW9kZWwmZ3Q7Jmx0O3Jvb3QmZ3Q7Jmx0O214Q2VsbCBpZD0mcXVvdDswJnF1b3Q7LyZndDsmbHQ7bXhDZWxsIGlkPSZxdW90OzEmcXVvdDsgcGFyZW50PSZxdW90OzAmcXVvdDsvJmd0OyZsdDtteENlbGwgaWQ9JnF1b3Q7MiZxdW90OyB2YWx1ZT0mcXVvdDsmcXVvdDsgc3R5bGU9JnF1b3Q7Z3JvdXAmcXVvdDsgdmVydGV4PSZxdW90OzEmcXVvdDsgY29ubmVjdGFibGU9JnF1b3Q7MCZxdW90OyBwYXJlbnQ9JnF1b3Q7MSZxdW90OyZndDsmbHQ7bXhHZW9tZXRyeSB4PSZxdW90OzEwNDAmcXVvdDsgeT0mcXVvdDs4MCZxdW90OyB3aWR0aD0mcXVvdDs0MCZxdW90OyBoZWlnaHQ9JnF1b3Q7MjAmcXVvdDsgYXM9JnF1b3Q7Z2VvbWV0cnkmcXVvdDsvJmd0OyZsdDsvbXhDZWxsJmd0OyZsdDtteENlbGwgaWQ9JnF1b3Q7MyZxdW90OyB2YWx1ZT0mcXVvdDsmcXVvdDsgc3R5bGU9JnF1b3Q7c2hhcGU9Y3lsaW5kZXIzO3doaXRlU3BhY2U9d3JhcDtodG1sPTE7Ym91bmRlZExibD0xO2JhY2tncm91bmRPdXRsaW5lPTE7c2l6ZT0xNTtsaWQ9MDtyb3RhdGlvbj05MDtmaWxsQ29sb3I9I0ZDRjhGRjsmcXVvdDsgdmVydGV4PSZxdW90OzEmcXVvdDsgcGFyZW50PSZxdW90OzImcXVvdDsmZ3Q7Jmx0O214R2VvbWV0cnkgeD0mcXVvdDs2LjU2JnF1b3Q7IHk9JnF1b3Q7LTMuODgmcXVvdDsgd2lkdGg9JnF1b3Q7MTcuNzgmcXVvdDsgaGVpZ2h0PSZxdW90OzIzLjc1JnF1b3Q7IGFzPSZxdW90O2dlb21ldHJ5JnF1b3Q7LyZndDsmbHQ7L214Q2VsbCZndDsmbHQ7bXhDZWxsIGlkPSZxdW90OzQmcXVvdDsgdmFsdWU9JnF1b3Q7JnF1b3Q7IHN0eWxlPSZxdW90O2VsbGlwc2U7d2hpdGVTcGFjZT13cmFwO2h0bWw9MTthc3BlY3Q9Zml4ZWQ7ZmlsbENvbG9yPSM3ODQ0RTU7JnF1b3Q7IHZlcnRleD0mcXVvdDsxJnF1b3Q7IHBhcmVudD0mcXVvdDsyJnF1b3Q7Jmd0OyZsdDtteEdlb21ldHJ5IHg9JnF1b3Q7MTQmcXVvdDsgeT0mcXVvdDstMiZxdW90OyB3aWR0aD0mcXVvdDsyMCZxdW90OyBoZWlnaHQ9JnF1b3Q7MjAmcXVvdDsgYXM9JnF1b3Q7Z2VvbWV0cnkmcXVvdDsvJmd0OyZsdDsvbXhDZWxsJmd0OyZsdDsvcm9vdCZndDsmbHQ7L214R3JhcGhNb2RlbCZndDsiPjxkZWZzLz48Zz48ZyBkYXRhLWNlbGwtaWQ9IjAiPjxnIGRhdGEtY2VsbC1pZD0iMSI+PGcgZGF0YS1jZWxsLWlkPSJhbkNtOUhzYXFZeU42Z2FDMkZYWS0xIi8+PGcgZGF0YS1jZWxsLWlkPSJhbkNtOUhzYXFZeU42Z2FDMkZYWS0yIi8+PGcgZGF0YS1jZWxsLWlkPSJhbkNtOUhzYXFZeU42Z2FDMkZYWS0xMyIvPjxnIGRhdGEtY2VsbC1pZD0iYW5DbTlIc2FxWXlONmdhQzJGWFktMTYiLz48ZyBkYXRhLWNlbGwtaWQ9ImFuQ205SHNhcVl5TjZnYUMyRlhZLTE3Ii8+PGcgZGF0YS1jZWxsLWlkPSJhbkNtOUhzYXFZeU42Z2FDMkZYWS0xOCIvPjxnIGRhdGEtY2VsbC1pZD0iYW5DbTlIc2FxWXlONmdhQzJGWFktMTkiLz48ZyBkYXRhLWNlbGwtaWQ9ImFuQ205SHNhcVl5TjZnYUMyRlhZLTIwIi8+PGcgZGF0YS1jZWxsLWlkPSJhbkNtOUhzYXFZeU42Z2FDMkZYWS01Ii8+PGcgZGF0YS1jZWxsLWlkPSJhbkNtOUhzYXFZeU42Z2FDMkZYWS02Ii8+PGcgZGF0YS1jZWxsLWlkPSJhbkNtOUhzYXFZeU42Z2FDMkZYWS03Ii8+PGcgZGF0YS1jZWxsLWlkPSJhbkNtOUhzYXFZeU42Z2FDMkZYWS04Ii8+PGcgZGF0YS1jZWxsLWlkPSJhbkNtOUhzYXFZeU42Z2FDMkZYWS05Ii8+PGcgZGF0YS1jZWxsLWlkPSJhbkNtOUhzYXFZeU42Z2FDMkZYWS0xMCIvPjxnIGRhdGEtY2VsbC1pZD0iYW5DbTlIc2FxWXlONmdhQzJGWFktMTEiLz48ZyBkYXRhLWNlbGwtaWQ9ImFuQ205SHNhcVl5TjZnYUMyRlhZLTMiLz48ZyBkYXRhLWNlbGwtaWQ9ImFuQ205SHNhcVl5TjZnYUMyRlhZLTE1Ii8+PGcgZGF0YS1jZWxsLWlkPSJhbkNtOUhzYXFZeU42Z2FDMkZYWS0yNSIvPjxnIGRhdGEtY2VsbC1pZD0iYW5DbTlIc2FxWXlONmdhQzJGWFktMjYiLz48ZyBkYXRhLWNlbGwtaWQ9ImFuQ205SHNhcVl5TjZnYUMyRlhZLTI3Ii8+PGcgZGF0YS1jZWxsLWlkPSJhbkNtOUhzYXFZeU42Z2FDMkZYWS0yOCIvPjxnIGRhdGEtY2VsbC1pZD0iYW5DbTlIc2FxWXlONmdhQzJGWFktMzAiLz48ZyBkYXRhLWNlbGwtaWQ9ImFuQ205SHNhcVl5TjZnYUMyRlhZLTMxIi8+PGcgZGF0YS1jZWxsLWlkPSJhbkNtOUhzYXFZeU42Z2FDMkZYWS0zMiIvPjxnIGRhdGEtY2VsbC1pZD0iYW5DbTlIc2FxWXlONmdhQzJGWFktMzMiLz48ZyBkYXRhLWNlbGwtaWQ9ImFuQ205SHNhcVl5TjZnYUMyRlhZLTM0Ii8+PGcgZGF0YS1jZWxsLWlkPSJhbkNtOUhzYXFZeU42Z2FDMkZYWS0zNSIvPjxnIGRhdGEtY2VsbC1pZD0iYW5DbTlIc2FxWXlONmdhQzJGWFktMzciLz48ZyBkYXRhLWNlbGwtaWQ9ImFuQ205SHNhcVl5TjZnYUMyRlhZLTM4Ii8+PGcgZGF0YS1jZWxsLWlkPSJhbkNtOUhzYXFZeU42Z2FDMkZYWS0zOSIvPjxnIGRhdGEtY2VsbC1pZD0iYW5DbTlIc2FxWXlONmdhQzJGWFktNDAiLz48ZyBkYXRhLWNlbGwtaWQ9ImFuQ205SHNhcVl5TjZnYUMyRlhZLTQxIi8+PGcgZGF0YS1jZWxsLWlkPSJhbkNtOUhzYXFZeU42Z2FDMkZYWS00MiIvPjxnIGRhdGEtY2VsbC1pZD0iYW5DbTlIc2FxWXlONmdhQzJGWFktNDMiLz48ZyBkYXRhLWNlbGwtaWQ9ImFuQ205SHNhcVl5TjZnYUMyRlhZLTQ0Ii8+PGcgZGF0YS1jZWxsLWlkPSJhbkNtOUhzYXFZeU42Z2FDMkZYWS00NyI+PGcgZGF0YS1jZWxsLWlkPSJhbkNtOUhzYXFZeU42Z2FDMkZYWS00NSIvPjxnIGRhdGEtY2VsbC1pZD0iYW5DbTlIc2FxWXlONmdhQzJGWFktNDYiLz48L2c+PGcgZGF0YS1jZWxsLWlkPSJhbkNtOUhzYXFZeU42Z2FDMkZYWS00OCIvPjxnIGRhdGEtY2VsbC1pZD0iYW5DbTlIc2FxWXlONmdhQzJGWFktNDkiLz48ZyBkYXRhLWNlbGwtaWQ9ImFuQ205SHNhcVl5TjZnYUMyRlhZLTUwIi8+PGcgZGF0YS1jZWxsLWlkPSJhbkNtOUhzYXFZeU42Z2FDMkZYWS01MSIvPjxnIGRhdGEtY2VsbC1pZD0iYW5DbTlIc2FxWXlONmdhQzJGWFktNTIiLz48ZyBkYXRhLWNlbGwtaWQ9ImFuQ205SHNhcVl5TjZnYUMyRlhZLTUzIi8+PGcgZGF0YS1jZWxsLWlkPSJhbkNtOUhzYXFZeU42Z2FDMkZYWS01NiIvPjxnIGRhdGEtY2VsbC1pZD0iYW5DbTlIc2FxWXlONmdhQzJGWFktNTgiLz48ZyBkYXRhLWNlbGwtaWQ9ImFuQ205SHNhcVl5TjZnYUMyRlhZLTU5Ii8+PGcgZGF0YS1jZWxsLWlkPSJhbkNtOUhzYXFZeU42Z2FDMkZYWS02MCIvPjxnIGRhdGEtY2VsbC1pZD0iYW5DbTlIc2FxWXlONmdhQzJGWFktNjEiLz48ZyBkYXRhLWNlbGwtaWQ9ImFuQ205SHNhcVl5TjZnYUMyRlhZLTYyIi8+PGcgZGF0YS1jZWxsLWlkPSJhbkNtOUhzYXFZeU42Z2FDMkZYWS02MyIvPjxnIGRhdGEtY2VsbC1pZD0iYW5DbTlIc2FxWXlONmdhQzJGWFktNjQiLz48ZyBkYXRhLWNlbGwtaWQ9ImFuQ205SHNhcVl5TjZnYUMyRlhZLTY1Ii8+PGcgZGF0YS1jZWxsLWlkPSJhbkNtOUhzYXFZeU42Z2FDMkZYWS02NiIvPjxnIGRhdGEtY2VsbC1pZD0iYW5DbTlIc2FxWXlONmdhQzJGWFktNjciLz48ZyBkYXRhLWNlbGwtaWQ9ImFuQ205SHNhcVl5TjZnYUMyRlhZLTY4Ii8+PGcgZGF0YS1jZWxsLWlkPSJhbkNtOUhzYXFZeU42Z2FDMkZYWS03MyI+PGcvPjxnIGRhdGEtY2VsbC1pZD0iYW5DbTlIc2FxWXlONmdhQzJGWFktNzEiPjxnPjxwYXRoIGQ9Ik0gNi41NiAtMS44OCBDIDYuNTYgNC42OCAxMC41NCA5Ljk5IDE1LjQ1IDkuOTkgQyAyMC4zNiA5Ljk5IDI0LjM0IDQuNjggMjQuMzQgLTEuODggTCAyNC4zNCA5Ljk5IEMgMjQuMzQgMTYuNTUgMjAuMzYgMjEuODcgMTUuNDUgMjEuODcgQyAxMC41NCAyMS44NyA2LjU2IDE2LjU1IDYuNTYgOS45OSBaIiBmaWxsPSIjZmNmOGZmIiBzdHlsZT0iZmlsbDogbGlnaHQtZGFyayhyZ2IoMjUyLCAyNDgsIDI1NSksIHJnYigyNSwgMjEsIDI3KSk7IHN0cm9rZTogbGlnaHQtZGFyayhyZ2IoMCwgMCwgMCksIHJnYigyNTUsIDI1NSwgMjU1KSk7IiBzdHJva2U9IiMwMDAwMDAiIHN0cm9rZS1taXRlcmxpbWl0PSIxMCIgdHJhbnNmb3JtPSJyb3RhdGUoOTAsMTUuNDUsOS45OSkiIHBvaW50ZXItZXZlbnRzPSJhbGwiLz48L2c+PC9nPjxnIGRhdGEtY2VsbC1pZD0iYW5DbTlIc2FxWXlONmdhQzJGWFktNzIiPjxnPjxlbGxpcHNlIGN4PSIyNCIgY3k9IjEwIiByeD0iMTAiIHJ5PSIxMCIgZmlsbD0iIzc4NDRlNSIgc3R5bGU9ImZpbGw6IGxpZ2h0LWRhcmsocmdiKDEyMCwgNjgsIDIyOSksIHJnYigxODUsIDE0MCwgMjU1KSk7IHN0cm9rZTogbGlnaHQtZGFyayhyZ2IoMCwgMCwgMCksIHJnYigyNTUsIDI1NSwgMjU1KSk7IiBzdHJva2U9IiMwMDAwMDAiIHBvaW50ZXItZXZlbnRzPSJhbGwiLz48L2c+PC9nPjwvZz48L2c+PC9nPjwvZz48L3N2Zz4=&quot; width=&quot;40&quot; height=&quot;23&quot;&gt;" style="text;whiteSpace=wrap;html=1;" vertex="1" parent="1">
          <mxGeometry x="370" y="160" width="70" height="50" as="geometry" />
        </mxCell>
        <mxCell id="a-rNxq47jJGG1cDdPVG0-15" value="Landlord?" style="text;html=1;align=center;verticalAlign=middle;whiteSpace=wrap;rounded=0;" vertex="1" parent="1">
          <mxGeometry x="310" y="170" width="60" height="15" as="geometry" />
        </mxCell>
        <mxCell id="a-rNxq47jJGG1cDdPVG0-16" value="" style="shape=flexArrow;endArrow=classic;html=1;rounded=0;" edge="1" parent="1">
          <mxGeometry width="50" height="50" relative="1" as="geometry">
            <mxPoint x="160" y="282.5" as="sourcePoint" />
            <mxPoint x="260" y="282.5" as="targetPoint" />
          </mxGeometry>
        </mxCell>
        <mxCell id="a-rNxq47jJGG1cDdPVG0-17" value="INPUT: Username, Password" style="text;html=1;align=center;verticalAlign=middle;resizable=0;points=[];autosize=1;strokeColor=none;fillColor=none;" vertex="1" parent="1">
          <mxGeometry x="-30" y="268" width="180" height="30" as="geometry" />
        </mxCell>
        <mxCell id="a-rNxq47jJGG1cDdPVG0-18" value="https(&#39;api/users/login/?username=#,password=#&#39;)" style="text;html=1;align=center;verticalAlign=middle;resizable=0;points=[];autosize=1;strokeColor=none;fillColor=none;" vertex="1" parent="1">
          <mxGeometry x="576" y="220" width="280" height="30" as="geometry" />
        </mxCell>
        <mxCell id="a-rNxq47jJGG1cDdPVG0-20" value="Process into Model, Connect to Database" style="rounded=0;whiteSpace=wrap;html=1;" vertex="1" parent="1">
          <mxGeometry x="890" y="140" width="220" height="320" as="geometry" />
        </mxCell>
        <mxCell id="a-rNxq47jJGG1cDdPVG0-21" value="" style="shape=flexArrow;endArrow=classic;html=1;rounded=0;" edge="1" parent="1">
          <mxGeometry width="50" height="50" relative="1" as="geometry">
            <mxPoint x="880" y="310" as="sourcePoint" />
            <mxPoint x="596" y="310" as="targetPoint" />
          </mxGeometry>
        </mxCell>
        <mxCell id="a-rNxq47jJGG1cDdPVG0-22" value="http 202 (listingsData, reviewsData)" style="text;html=1;align=center;verticalAlign=middle;resizable=0;points=[];autosize=1;strokeColor=none;fillColor=none;" vertex="1" parent="1">
          <mxGeometry x="625" y="318" width="210" height="30" as="geometry" />
        </mxCell>
        <mxCell id="a-rNxq47jJGG1cDdPVG0-23" value="Backend" style="text;html=1;align=center;verticalAlign=middle;whiteSpace=wrap;rounded=0;" vertex="1" parent="1">
          <mxGeometry x="970" y="100" width="60" height="30" as="geometry" />
        </mxCell>
        <mxCell id="a-rNxq47jJGG1cDdPVG0-24" value="" style="shape=flexArrow;endArrow=classic;html=1;rounded=0;" edge="1" parent="1">
          <mxGeometry width="50" height="50" relative="1" as="geometry">
            <mxPoint x="600" y="270" as="sourcePoint" />
            <mxPoint x="870" y="270" as="targetPoint" />
          </mxGeometry>
        </mxCell>
        <mxCell id="a-rNxq47jJGG1cDdPVG0-25" value="" style="image;html=1;image=img/lib/clip_art/computers/Database_128x128.png" vertex="1" parent="1">
          <mxGeometry x="1320" y="200" width="180" height="170" as="geometry" />
        </mxCell>
        <mxCell id="a-rNxq47jJGG1cDdPVG0-26" value="" style="shape=flexArrow;endArrow=classic;html=1;rounded=0;" edge="1" parent="1">
          <mxGeometry width="50" height="50" relative="1" as="geometry">
            <mxPoint x="1130" y="260" as="sourcePoint" />
            <mxPoint x="1310" y="260" as="targetPoint" />
          </mxGeometry>
        </mxCell>
        <mxCell id="a-rNxq47jJGG1cDdPVG0-30" value="SELECT ID from Users Table,&lt;div&gt;GET Listings Data from ID,&lt;/div&gt;&lt;div&gt;GET Reviews Data about ID&lt;/div&gt;" style="text;html=1;align=center;verticalAlign=middle;whiteSpace=wrap;rounded=0;" vertex="1" parent="1">
          <mxGeometry x="1100" y="210" width="230" height="30" as="geometry" />
        </mxCell>
        <mxCell id="a-rNxq47jJGG1cDdPVG0-31" value="" style="shape=flexArrow;endArrow=classic;html=1;rounded=0;" edge="1" parent="1">
          <mxGeometry width="50" height="50" relative="1" as="geometry">
            <mxPoint x="1300" y="310" as="sourcePoint" />
            <mxPoint x="1130" y="310" as="targetPoint" />
          </mxGeometry>
        </mxCell>
        <mxCell id="a-rNxq47jJGG1cDdPVG0-32" value="JSON(listingsData, reviewsData)" style="text;html=1;align=center;verticalAlign=middle;resizable=0;points=[];autosize=1;strokeColor=none;fillColor=none;" vertex="1" parent="1">
          <mxGeometry x="1120" y="318" width="200" height="30" as="geometry" />
        </mxCell>
        <mxCell id="a-rNxq47jJGG1cDdPVG0-48" value="https(&#39;api/listings/getAllListings&#39;)" style="text;html=1;align=center;verticalAlign=middle;resizable=0;points=[];autosize=1;strokeColor=none;fillColor=none;" vertex="1" parent="1">
          <mxGeometry x="625" y="660" width="190" height="30" as="geometry" />
        </mxCell>
        <mxCell id="a-rNxq47jJGG1cDdPVG0-49" value="Process into Model, Connect to Database" style="rounded=0;whiteSpace=wrap;html=1;" vertex="1" parent="1">
          <mxGeometry x="880" y="580" width="220" height="320" as="geometry" />
        </mxCell>
        <mxCell id="a-rNxq47jJGG1cDdPVG0-50" value="" style="shape=flexArrow;endArrow=classic;html=1;rounded=0;" edge="1" parent="1">
          <mxGeometry width="50" height="50" relative="1" as="geometry">
            <mxPoint x="870" y="750" as="sourcePoint" />
            <mxPoint x="586" y="750" as="targetPoint" />
          </mxGeometry>
        </mxCell>
        <mxCell id="a-rNxq47jJGG1cDdPVG0-51" value="http 202 (listingsData)" style="text;html=1;align=center;verticalAlign=middle;resizable=0;points=[];autosize=1;strokeColor=none;fillColor=none;" vertex="1" parent="1">
          <mxGeometry x="650" y="758" width="140" height="30" as="geometry" />
        </mxCell>
        <mxCell id="a-rNxq47jJGG1cDdPVG0-52" value="Backend" style="text;html=1;align=center;verticalAlign=middle;whiteSpace=wrap;rounded=0;" vertex="1" parent="1">
          <mxGeometry x="960" y="540" width="60" height="30" as="geometry" />
        </mxCell>
        <mxCell id="a-rNxq47jJGG1cDdPVG0-53" value="" style="shape=flexArrow;endArrow=classic;html=1;rounded=0;" edge="1" parent="1">
          <mxGeometry width="50" height="50" relative="1" as="geometry">
            <mxPoint x="590" y="710" as="sourcePoint" />
            <mxPoint x="860" y="710" as="targetPoint" />
          </mxGeometry>
        </mxCell>
        <mxCell id="a-rNxq47jJGG1cDdPVG0-54" value="" style="image;html=1;image=img/lib/clip_art/computers/Database_128x128.png" vertex="1" parent="1">
          <mxGeometry x="1310" y="640" width="180" height="170" as="geometry" />
        </mxCell>
        <mxCell id="a-rNxq47jJGG1cDdPVG0-55" value="" style="shape=flexArrow;endArrow=classic;html=1;rounded=0;" edge="1" parent="1">
          <mxGeometry width="50" height="50" relative="1" as="geometry">
            <mxPoint x="1120" y="700" as="sourcePoint" />
            <mxPoint x="1300" y="700" as="targetPoint" />
          </mxGeometry>
        </mxCell>
        <mxCell id="a-rNxq47jJGG1cDdPVG0-56" value="SELECT * ListingsData" style="text;html=1;align=center;verticalAlign=middle;whiteSpace=wrap;rounded=0;" vertex="1" parent="1">
          <mxGeometry x="1090" y="650" width="230" height="30" as="geometry" />
        </mxCell>
        <mxCell id="a-rNxq47jJGG1cDdPVG0-57" value="" style="shape=flexArrow;endArrow=classic;html=1;rounded=0;" edge="1" parent="1">
          <mxGeometry width="50" height="50" relative="1" as="geometry">
            <mxPoint x="1290" y="750" as="sourcePoint" />
            <mxPoint x="1120" y="750" as="targetPoint" />
          </mxGeometry>
        </mxCell>
        <mxCell id="a-rNxq47jJGG1cDdPVG0-58" value="JSON(listingsData)" style="text;html=1;align=center;verticalAlign=middle;resizable=0;points=[];autosize=1;strokeColor=none;fillColor=none;" vertex="1" parent="1">
          <mxGeometry x="1145" y="758" width="130" height="30" as="geometry" />
        </mxCell>
        <mxCell id="a-rNxq47jJGG1cDdPVG0-82" value="" style="group" vertex="1" connectable="0" parent="1">
          <mxGeometry x="26" y="550" width="550" height="280" as="geometry" />
        </mxCell>
        <mxCell id="a-rNxq47jJGG1cDdPVG0-59" value="" style="rounded=1;whiteSpace=wrap;html=1;fillColor=#7844E5;" vertex="1" parent="a-rNxq47jJGG1cDdPVG0-82">
          <mxGeometry y="24.347826086956516" width="550" height="255.65217391304344" as="geometry" />
        </mxCell>
        <mxCell id="a-rNxq47jJGG1cDdPVG0-60" value="&lt;b&gt;&lt;font style=&quot;font-size: 24px;&quot;&gt;LISTINGS&lt;/font&gt;&lt;/b&gt;" style="text;html=1;align=center;verticalAlign=middle;whiteSpace=wrap;rounded=0;" vertex="1" parent="a-rNxq47jJGG1cDdPVG0-82">
          <mxGeometry x="158.0281690140845" width="233.94366197183098" height="18.260869565217387" as="geometry" />
        </mxCell>
        <mxCell id="a-rNxq47jJGG1cDdPVG0-61" value="" style="rounded=1;whiteSpace=wrap;html=1;fillColor=#FCF8FF;movable=1;resizable=1;rotatable=1;deletable=1;editable=1;locked=0;connectable=1;" vertex="1" parent="a-rNxq47jJGG1cDdPVG0-82">
          <mxGeometry x="15.492957746478872" y="70" width="519.0140845070422" height="203.91304347826085" as="geometry" />
        </mxCell>
        <mxCell id="a-rNxq47jJGG1cDdPVG0-62" value="" style="rounded=1;whiteSpace=wrap;html=1;" vertex="1" parent="a-rNxq47jJGG1cDdPVG0-82">
          <mxGeometry x="23.239436619718308" y="125.39130434782606" width="503.5211267605634" height="36.521739130434774" as="geometry" />
        </mxCell>
        <mxCell id="a-rNxq47jJGG1cDdPVG0-63" value="" style="rounded=1;whiteSpace=wrap;html=1;" vertex="1" parent="a-rNxq47jJGG1cDdPVG0-82">
          <mxGeometry x="23.239436619718308" y="173.4782608695652" width="503.5211267605634" height="36.521739130434774" as="geometry" />
        </mxCell>
        <mxCell id="a-rNxq47jJGG1cDdPVG0-64" value="" style="rounded=1;whiteSpace=wrap;html=1;" vertex="1" parent="a-rNxq47jJGG1cDdPVG0-82">
          <mxGeometry x="23.239436619718308" y="219.1304347826087" width="503.5211267605634" height="36.521739130434774" as="geometry" />
        </mxCell>
        <mxCell id="a-rNxq47jJGG1cDdPVG0-65" value="" style="group" vertex="1" connectable="0" parent="a-rNxq47jJGG1cDdPVG0-82">
          <mxGeometry x="23.239436619718308" y="30.434782608695645" width="503.5211267605634" height="36.521739130434774" as="geometry" />
        </mxCell>
        <mxCell id="a-rNxq47jJGG1cDdPVG0-66" value="&lt;span style=&quot;color: rgb(157, 157, 157);&quot;&gt;Nav Bar&lt;/span&gt;" style="rounded=1;whiteSpace=wrap;html=1;fillColor=#7844E5;" vertex="1" parent="a-rNxq47jJGG1cDdPVG0-65">
          <mxGeometry width="503.5211267605634" height="36.521739130434774" as="geometry" />
        </mxCell>
        <mxCell id="a-rNxq47jJGG1cDdPVG0-67" value="&lt;span style=&quot;color: rgb(252, 248, 255);&quot;&gt;&lt;b&gt;Landlord Portal&lt;/b&gt;&lt;/span&gt;" style="rounded=1;whiteSpace=wrap;html=1;fillColor=#5927E5;" vertex="1" parent="a-rNxq47jJGG1cDdPVG0-65">
          <mxGeometry x="15.492957746478874" y="6.086956521739129" width="57.32394366197183" height="24.347826086956516" as="geometry" />
        </mxCell>
        <mxCell id="a-rNxq47jJGG1cDdPVG0-68" value="&lt;span style=&quot;color: rgb(252, 248, 255);&quot;&gt;&lt;b&gt;Help and Information&lt;/b&gt;&lt;/span&gt;" style="rounded=1;whiteSpace=wrap;html=1;fillColor=#5927E5;" vertex="1" parent="a-rNxq47jJGG1cDdPVG0-65">
          <mxGeometry x="418.3098591549296" y="6.086956521739129" width="61.971830985915496" height="24.347826086956516" as="geometry" />
        </mxCell>
        <mxCell id="a-rNxq47jJGG1cDdPVG0-69" value="&lt;span style=&quot;color: rgb(252, 248, 255);&quot;&gt;&lt;b&gt;Listings&lt;/b&gt;&lt;/span&gt;" style="rounded=1;whiteSpace=wrap;html=1;fillColor=#5927E5;" vertex="1" parent="a-rNxq47jJGG1cDdPVG0-65">
          <mxGeometry x="108.45070422535213" y="6.086956521739129" width="57.32394366197183" height="24.347826086956516" as="geometry" />
        </mxCell>
        <mxCell id="a-rNxq47jJGG1cDdPVG0-70" value="&lt;b&gt;&lt;span style=&quot;color: rgb(252, 248, 255);&quot;&gt;Reviews&lt;/span&gt;&lt;/b&gt;" style="rounded=1;whiteSpace=wrap;html=1;fillColor=#5927E5;" vertex="1" parent="a-rNxq47jJGG1cDdPVG0-65">
          <mxGeometry x="325.3521126760564" y="6.086956521739129" width="57.32394366197183" height="24.347826086956516" as="geometry" />
        </mxCell>
        <mxCell id="a-rNxq47jJGG1cDdPVG0-71" value="" style="ellipse;shape=cloud;whiteSpace=wrap;html=1;fillColor=#FCF8FF;strokeColor=#5927E5;" vertex="1" parent="a-rNxq47jJGG1cDdPVG0-65">
          <mxGeometry x="216.90140845070425" y="6.086956521739129" width="69.71830985915493" height="30.434782608695645" as="geometry" />
        </mxCell>
        <mxCell id="a-rNxq47jJGG1cDdPVG0-72" value="" style="html=1;verticalLabelPosition=bottom;align=center;labelBackgroundColor=#ffffff;verticalAlign=top;strokeWidth=2;strokeColor=#9B89B3;shadow=0;dashed=0;shape=mxgraph.ios7.icons.home;fillColor=#FCF8FF;" vertex="1" parent="a-rNxq47jJGG1cDdPVG0-65">
          <mxGeometry x="238.20422535211267" width="30.2112676056338" height="21.60869565217391" as="geometry" />
        </mxCell>
        <mxCell id="a-rNxq47jJGG1cDdPVG0-73" value="" style="group" vertex="1" connectable="0" parent="a-rNxq47jJGG1cDdPVG0-82">
          <mxGeometry x="348.5915492957746" y="77.45652173913042" width="30.985915492957744" height="18.260869565217387" as="geometry" />
        </mxCell>
        <mxCell id="a-rNxq47jJGG1cDdPVG0-74" value="&lt;div&gt;&lt;br&gt;&lt;/div&gt;" style="rounded=1;whiteSpace=wrap;html=1;" vertex="1" parent="a-rNxq47jJGG1cDdPVG0-73">
          <mxGeometry width="30.985915492957744" height="18.260869565217387" as="geometry" />
        </mxCell>
        <mxCell id="a-rNxq47jJGG1cDdPVG0-75" value="" style="group" vertex="1" connectable="0" parent="a-rNxq47jJGG1cDdPVG0-73">
          <mxGeometry x="7.746478873239436" y="7.76086956521739" width="15.492957746478872" height="6.086956521739129" as="geometry" />
        </mxCell>
        <mxCell id="a-rNxq47jJGG1cDdPVG0-76" value="" style="endArrow=none;html=1;rounded=0;" edge="1" parent="a-rNxq47jJGG1cDdPVG0-75">
          <mxGeometry width="50" height="50" relative="1" as="geometry">
            <mxPoint as="sourcePoint" />
            <mxPoint x="15.492957746478872" as="targetPoint" />
          </mxGeometry>
        </mxCell>
        <mxCell id="a-rNxq47jJGG1cDdPVG0-77" value="" style="endArrow=none;html=1;rounded=0;" edge="1" parent="a-rNxq47jJGG1cDdPVG0-75">
          <mxGeometry width="50" height="50" relative="1" as="geometry">
            <mxPoint y="6.086956521739129" as="sourcePoint" />
            <mxPoint x="15.492957746478872" y="6.086956521739129" as="targetPoint" />
          </mxGeometry>
        </mxCell>
        <mxCell id="a-rNxq47jJGG1cDdPVG0-78" value="" style="endArrow=none;html=1;rounded=0;" edge="1" parent="a-rNxq47jJGG1cDdPVG0-75">
          <mxGeometry width="50" height="50" relative="1" as="geometry">
            <mxPoint y="3.0434782608695645" as="sourcePoint" />
            <mxPoint x="15.492957746478872" y="3.0434782608695645" as="targetPoint" />
          </mxGeometry>
        </mxCell>
        <mxCell id="a-rNxq47jJGG1cDdPVG0-79" value="" style="group" vertex="1" connectable="0" parent="a-rNxq47jJGG1cDdPVG0-82">
          <mxGeometry x="61.97183098591549" y="79.13043478260869" width="278.8732394366197" height="14.913043478260867" as="geometry" />
        </mxCell>
        <mxCell id="a-rNxq47jJGG1cDdPVG0-80" value="Search by address / home type" style="rounded=1;whiteSpace=wrap;html=1;" vertex="1" parent="a-rNxq47jJGG1cDdPVG0-79">
          <mxGeometry width="278.8732394366197" height="14.913043478260867" as="geometry" />
        </mxCell>
        <mxCell id="a-rNxq47jJGG1cDdPVG0-81" value="" style="shape=image;verticalLabelPosition=bottom;labelBackgroundColor=default;verticalAlign=top;aspect=fixed;imageAspect=0;editableCssRules=.*;image=data:image/svg+xml,PHN2ZyB3aWR0aD0iMTgiIHZpZXdCb3g9IjEyMCAtODQwIDcyMCA3MjAiIGhlaWdodD0iMTgiIHhtbG5zPSJodHRwOi8vd3d3LnczLm9yZy8yMDAwL3N2ZyI+PHBhdGggZD0iTTc4NC0xMjAgNTMyLTM3MnEtMzAgMjQtNjkgMzh0LTgzIDE0cS0xMDkgMC0xODQuNS03NS41VDEyMC01ODBxMC0xMDkgNzUuNS0xODQuNVQzODAtODQwcTEwOSAwIDE4NC41IDc1LjVUNjQwLTU4MHEwIDQ0LTE0IDgzdC0zOCA2OWwyNTIgMjUyLTU2IDU2Wk0zODAtNDAwcTc1IDAgMTI3LjUtNTIuNVQ1NjAtNTgwcTAtNzUtNTIuNS0xMjcuNVQzODAtNzYwcS03NSAwLTEyNy41IDUyLjVUMjAwLTU4MHEwIDc1IDUyLjUgMTI3LjVUMzgwLTQwMFoiLz48L3N2Zz4=;" vertex="1" parent="a-rNxq47jJGG1cDdPVG0-79">
          <mxGeometry x="3.098591549295775" y="1.2173913043478257" width="10.956521739130432" height="10.956521739130432" as="geometry" />
        </mxCell>
        <mxCell id="a-rNxq47jJGG1cDdPVG0-83" value="" style="shape=flexArrow;endArrow=classic;html=1;rounded=0;" edge="1" parent="1">
          <mxGeometry width="50" height="50" relative="1" as="geometry">
            <mxPoint x="250" y="359.5" as="sourcePoint" />
            <mxPoint x="100" y="359.5" as="targetPoint" />
          </mxGeometry>
        </mxCell>
        <mxCell id="a-rNxq47jJGG1cDdPVG0-84" value="Load landlord dashboard with populated data" style="text;html=1;align=center;verticalAlign=middle;resizable=0;points=[];autosize=1;strokeColor=none;fillColor=none;" vertex="1" parent="1">
          <mxGeometry x="14" y="321" width="260" height="30" as="geometry" />
        </mxCell>
        <mxCell id="a-rNxq47jJGG1cDdPVG0-85" value="https(&#39;api/reviews/getAllReviews&#39;)" style="text;html=1;align=center;verticalAlign=middle;resizable=0;points=[];autosize=1;strokeColor=none;fillColor=none;" vertex="1" parent="1">
          <mxGeometry x="634" y="1080" width="200" height="30" as="geometry" />
        </mxCell>
        <mxCell id="a-rNxq47jJGG1cDdPVG0-86" value="Process into Model, Connect to Database" style="rounded=0;whiteSpace=wrap;html=1;" vertex="1" parent="1">
          <mxGeometry x="894" y="1000" width="220" height="320" as="geometry" />
        </mxCell>
        <mxCell id="a-rNxq47jJGG1cDdPVG0-87" value="" style="shape=flexArrow;endArrow=classic;html=1;rounded=0;" edge="1" parent="1">
          <mxGeometry width="50" height="50" relative="1" as="geometry">
            <mxPoint x="884" y="1170" as="sourcePoint" />
            <mxPoint x="600" y="1170" as="targetPoint" />
          </mxGeometry>
        </mxCell>
        <mxCell id="a-rNxq47jJGG1cDdPVG0-88" value="http 202 (listingsData)" style="text;html=1;align=center;verticalAlign=middle;resizable=0;points=[];autosize=1;strokeColor=none;fillColor=none;" vertex="1" parent="1">
          <mxGeometry x="664" y="1178" width="140" height="30" as="geometry" />
        </mxCell>
        <mxCell id="a-rNxq47jJGG1cDdPVG0-89" value="Backend" style="text;html=1;align=center;verticalAlign=middle;whiteSpace=wrap;rounded=0;" vertex="1" parent="1">
          <mxGeometry x="974" y="960" width="60" height="30" as="geometry" />
        </mxCell>
        <mxCell id="a-rNxq47jJGG1cDdPVG0-90" value="" style="shape=flexArrow;endArrow=classic;html=1;rounded=0;" edge="1" parent="1">
          <mxGeometry width="50" height="50" relative="1" as="geometry">
            <mxPoint x="604" y="1130" as="sourcePoint" />
            <mxPoint x="874" y="1130" as="targetPoint" />
          </mxGeometry>
        </mxCell>
        <mxCell id="a-rNxq47jJGG1cDdPVG0-91" value="" style="image;html=1;image=img/lib/clip_art/computers/Database_128x128.png" vertex="1" parent="1">
          <mxGeometry x="1324" y="1060" width="180" height="170" as="geometry" />
        </mxCell>
        <mxCell id="a-rNxq47jJGG1cDdPVG0-92" value="" style="shape=flexArrow;endArrow=classic;html=1;rounded=0;" edge="1" parent="1">
          <mxGeometry width="50" height="50" relative="1" as="geometry">
            <mxPoint x="1134" y="1120" as="sourcePoint" />
            <mxPoint x="1314" y="1120" as="targetPoint" />
          </mxGeometry>
        </mxCell>
        <mxCell id="a-rNxq47jJGG1cDdPVG0-93" value="SELECT * ReviewData" style="text;html=1;align=center;verticalAlign=middle;whiteSpace=wrap;rounded=0;" vertex="1" parent="1">
          <mxGeometry x="1104" y="1070" width="230" height="30" as="geometry" />
        </mxCell>
        <mxCell id="a-rNxq47jJGG1cDdPVG0-94" value="" style="shape=flexArrow;endArrow=classic;html=1;rounded=0;" edge="1" parent="1">
          <mxGeometry width="50" height="50" relative="1" as="geometry">
            <mxPoint x="1304" y="1170" as="sourcePoint" />
            <mxPoint x="1134" y="1170" as="targetPoint" />
          </mxGeometry>
        </mxCell>
        <mxCell id="a-rNxq47jJGG1cDdPVG0-95" value="JSON(reviewData)" style="text;html=1;align=center;verticalAlign=middle;resizable=0;points=[];autosize=1;strokeColor=none;fillColor=none;" vertex="1" parent="1">
          <mxGeometry x="1164" y="1178" width="120" height="30" as="geometry" />
        </mxCell>
        <mxCell id="a-rNxq47jJGG1cDdPVG0-164" value="" style="group" vertex="1" connectable="0" parent="1">
          <mxGeometry x="20" y="960" width="570" height="360" as="geometry" />
        </mxCell>
        <mxCell id="a-rNxq47jJGG1cDdPVG0-120" value="&lt;font style=&quot;font-size: 24px;&quot;&gt;&lt;b&gt;REVIEWS&lt;/b&gt;&lt;/font&gt;" style="text;html=1;align=center;verticalAlign=middle;whiteSpace=wrap;rounded=0;" vertex="1" parent="a-rNxq47jJGG1cDdPVG0-164">
          <mxGeometry x="175.01408450704227" width="242.45070422535213" height="22.5" as="geometry" />
        </mxCell>
        <mxCell id="a-rNxq47jJGG1cDdPVG0-121" value="" style="rounded=1;whiteSpace=wrap;html=1;fillColor=#7844E5;" vertex="1" parent="a-rNxq47jJGG1cDdPVG0-164">
          <mxGeometry y="30" width="570" height="330" as="geometry" />
        </mxCell>
        <mxCell id="a-rNxq47jJGG1cDdPVG0-122" value="" style="rounded=1;whiteSpace=wrap;html=1;fillColor=#FCF8FF;movable=1;resizable=1;rotatable=1;deletable=1;editable=1;locked=0;connectable=1;" vertex="1" parent="a-rNxq47jJGG1cDdPVG0-164">
          <mxGeometry x="16.056338028169016" y="90" width="537.887323943662" height="251.25" as="geometry" />
        </mxCell>
        <mxCell id="a-rNxq47jJGG1cDdPVG0-123" value="" style="rounded=1;whiteSpace=wrap;html=1;" vertex="1" parent="a-rNxq47jJGG1cDdPVG0-164">
          <mxGeometry x="24.084507042253524" y="129.75" width="521.830985915493" height="45" as="geometry" />
        </mxCell>
        <mxCell id="a-rNxq47jJGG1cDdPVG0-124" value="" style="rounded=1;whiteSpace=wrap;html=1;" vertex="1" parent="a-rNxq47jJGG1cDdPVG0-164">
          <mxGeometry x="24.084507042253524" y="180.75" width="521.830985915493" height="45" as="geometry" />
        </mxCell>
        <mxCell id="a-rNxq47jJGG1cDdPVG0-125" value="" style="rounded=1;whiteSpace=wrap;html=1;" vertex="1" parent="a-rNxq47jJGG1cDdPVG0-164">
          <mxGeometry x="24.084507042253524" y="232.5" width="521.830985915493" height="45" as="geometry" />
        </mxCell>
        <mxCell id="a-rNxq47jJGG1cDdPVG0-126" value="" style="group" vertex="1" connectable="0" parent="a-rNxq47jJGG1cDdPVG0-164">
          <mxGeometry x="24.084507042253524" y="37.5" width="521.830985915493" height="45" as="geometry" />
        </mxCell>
        <mxCell id="a-rNxq47jJGG1cDdPVG0-127" value="&lt;span style=&quot;color: rgb(157, 157, 157);&quot;&gt;Nav Bar&lt;/span&gt;" style="rounded=1;whiteSpace=wrap;html=1;fillColor=#7844E5;" vertex="1" parent="a-rNxq47jJGG1cDdPVG0-126">
          <mxGeometry width="521.830985915493" height="45" as="geometry" />
        </mxCell>
        <mxCell id="a-rNxq47jJGG1cDdPVG0-128" value="&lt;span style=&quot;color: rgb(252, 248, 255);&quot;&gt;&lt;b&gt;Landlord Portal&lt;/b&gt;&lt;/span&gt;" style="rounded=1;whiteSpace=wrap;html=1;fillColor=#5927E5;" vertex="1" parent="a-rNxq47jJGG1cDdPVG0-126">
          <mxGeometry x="16.056338028169016" y="7.5" width="59.40845070422535" height="30" as="geometry" />
        </mxCell>
        <mxCell id="a-rNxq47jJGG1cDdPVG0-129" value="&lt;span style=&quot;color: rgb(252, 248, 255);&quot;&gt;&lt;b&gt;Help and Information&lt;/b&gt;&lt;/span&gt;" style="rounded=1;whiteSpace=wrap;html=1;fillColor=#5927E5;" vertex="1" parent="a-rNxq47jJGG1cDdPVG0-126">
          <mxGeometry x="433.5211267605634" y="7.5" width="64.22535211267606" height="30" as="geometry" />
        </mxCell>
        <mxCell id="a-rNxq47jJGG1cDdPVG0-130" value="&lt;span style=&quot;color: rgb(252, 248, 255);&quot;&gt;&lt;b&gt;Listings&lt;/b&gt;&lt;/span&gt;" style="rounded=1;whiteSpace=wrap;html=1;fillColor=#5927E5;" vertex="1" parent="a-rNxq47jJGG1cDdPVG0-126">
          <mxGeometry x="112.3943661971831" y="7.5" width="59.40845070422535" height="30" as="geometry" />
        </mxCell>
        <mxCell id="a-rNxq47jJGG1cDdPVG0-131" value="&lt;b&gt;&lt;span style=&quot;color: rgb(252, 248, 255);&quot;&gt;Reviews&lt;/span&gt;&lt;/b&gt;" style="rounded=1;whiteSpace=wrap;html=1;fillColor=#5927E5;" vertex="1" parent="a-rNxq47jJGG1cDdPVG0-126">
          <mxGeometry x="337.1830985915493" y="7.5" width="59.40845070422535" height="30" as="geometry" />
        </mxCell>
        <mxCell id="a-rNxq47jJGG1cDdPVG0-132" value="" style="ellipse;shape=cloud;whiteSpace=wrap;html=1;fillColor=#FCF8FF;strokeColor=#5927E5;" vertex="1" parent="a-rNxq47jJGG1cDdPVG0-126">
          <mxGeometry x="224.7887323943662" y="7.5" width="72.25352112676056" height="37.5" as="geometry" />
        </mxCell>
        <mxCell id="a-rNxq47jJGG1cDdPVG0-133" value="" style="html=1;verticalLabelPosition=bottom;align=center;labelBackgroundColor=#ffffff;verticalAlign=top;strokeWidth=2;strokeColor=#9B89B3;shadow=0;dashed=0;shape=mxgraph.ios7.icons.home;fillColor=#FCF8FF;" vertex="1" parent="a-rNxq47jJGG1cDdPVG0-126">
          <mxGeometry x="246.8661971830986" width="31.30985915492958" height="26.625" as="geometry" />
        </mxCell>
        <mxCell id="a-rNxq47jJGG1cDdPVG0-134" value="" style="group" vertex="1" connectable="0" parent="a-rNxq47jJGG1cDdPVG0-164">
          <mxGeometry x="24.084507042253524" y="105" width="289.01408450704224" height="18.375" as="geometry" />
        </mxCell>
        <mxCell id="a-rNxq47jJGG1cDdPVG0-135" value="Search by Username" style="rounded=1;whiteSpace=wrap;html=1;" vertex="1" parent="a-rNxq47jJGG1cDdPVG0-134">
          <mxGeometry width="289.01408450704224" height="18.375" as="geometry" />
        </mxCell>
        <mxCell id="a-rNxq47jJGG1cDdPVG0-136" value="" style="shape=image;verticalLabelPosition=bottom;labelBackgroundColor=default;verticalAlign=top;aspect=fixed;imageAspect=0;editableCssRules=.*;image=data:image/svg+xml,PHN2ZyB3aWR0aD0iMTgiIHZpZXdCb3g9IjEyMCAtODQwIDcyMCA3MjAiIGhlaWdodD0iMTgiIHhtbG5zPSJodHRwOi8vd3d3LnczLm9yZy8yMDAwL3N2ZyI+PHBhdGggZD0iTTc4NC0xMjAgNTMyLTM3MnEtMzAgMjQtNjkgMzh0LTgzIDE0cS0xMDkgMC0xODQuNS03NS41VDEyMC01ODBxMC0xMDkgNzUuNS0xODQuNVQzODAtODQwcTEwOSAwIDE4NC41IDc1LjVUNjQwLTU4MHEwIDQ0LTE0IDgzdC0zOCA2OWwyNTIgMjUyLTU2IDU2Wk0zODAtNDAwcTc1IDAgMTI3LjUtNTIuNVQ1NjAtNTgwcTAtNzUtNTIuNS0xMjcuNVQzODAtNzYwcS03NSAwLTEyNy41IDUyLjVUMjAwLTU4MHEwIDc1IDUyLjUgMTI3LjVUMzgwLTQwMFoiLz48L3N2Zz4=;" vertex="1" parent="a-rNxq47jJGG1cDdPVG0-134">
          <mxGeometry x="3.2112676056338025" y="1.5" width="13.5" height="13.5" as="geometry" />
        </mxCell>
        <mxCell id="a-rNxq47jJGG1cDdPVG0-137" value="About:" style="text;html=1;align=center;verticalAlign=middle;resizable=0;points=[];autosize=1;strokeColor=none;fillColor=none;" vertex="1" parent="a-rNxq47jJGG1cDdPVG0-164">
          <mxGeometry x="345.2112676056338" y="100.875" width="60" height="30" as="geometry" />
        </mxCell>
        <mxCell id="a-rNxq47jJGG1cDdPVG0-138" value="Landlord" style="ellipse;whiteSpace=wrap;html=1;fillColor=#B595E5;" vertex="1" parent="a-rNxq47jJGG1cDdPVG0-164">
          <mxGeometry x="409.4366197183099" y="102" width="43.35211267605634" height="20.25" as="geometry" />
        </mxCell>
        <mxCell id="a-rNxq47jJGG1cDdPVG0-139" value="Tenant" style="ellipse;whiteSpace=wrap;html=1;fillColor=#7844E5;" vertex="1" parent="a-rNxq47jJGG1cDdPVG0-164">
          <mxGeometry x="457.6056338028169" y="102" width="43.35211267605634" height="20.25" as="geometry" />
        </mxCell>
        <mxCell id="a-rNxq47jJGG1cDdPVG0-140" value="" style="group" vertex="1" connectable="0" parent="a-rNxq47jJGG1cDdPVG0-164">
          <mxGeometry x="425.4929577464789" y="135" width="88.30985915492958" height="12.75" as="geometry" />
        </mxCell>
        <mxCell id="a-rNxq47jJGG1cDdPVG0-141" value="" style="verticalLabelPosition=bottom;verticalAlign=top;html=1;shape=mxgraph.basic.star;fillColor=#FFFF33;" vertex="1" parent="a-rNxq47jJGG1cDdPVG0-140">
          <mxGeometry width="17.661971830985916" height="12.75" as="geometry" />
        </mxCell>
        <mxCell id="a-rNxq47jJGG1cDdPVG0-142" value="" style="verticalLabelPosition=bottom;verticalAlign=top;html=1;shape=mxgraph.basic.star;fillColor=#FFFF33;" vertex="1" parent="a-rNxq47jJGG1cDdPVG0-140">
          <mxGeometry x="17.661971830985916" width="17.661971830985916" height="12.75" as="geometry" />
        </mxCell>
        <mxCell id="a-rNxq47jJGG1cDdPVG0-143" value="" style="verticalLabelPosition=bottom;verticalAlign=top;html=1;shape=mxgraph.basic.star;fillColor=#FFFF33;" vertex="1" parent="a-rNxq47jJGG1cDdPVG0-140">
          <mxGeometry x="35.32394366197183" width="17.661971830985916" height="12.75" as="geometry" />
        </mxCell>
        <mxCell id="a-rNxq47jJGG1cDdPVG0-144" value="" style="verticalLabelPosition=bottom;verticalAlign=top;html=1;shape=mxgraph.basic.star;fillColor=#FFFF33;" vertex="1" parent="a-rNxq47jJGG1cDdPVG0-140">
          <mxGeometry x="52.98591549295775" width="17.661971830985916" height="12.75" as="geometry" />
        </mxCell>
        <mxCell id="a-rNxq47jJGG1cDdPVG0-145" value="" style="verticalLabelPosition=bottom;verticalAlign=top;html=1;shape=mxgraph.basic.star;fillColor=#FFFF33;" vertex="1" parent="a-rNxq47jJGG1cDdPVG0-140">
          <mxGeometry x="70.64788732394366" width="17.661971830985916" height="12.75" as="geometry" />
        </mxCell>
        <mxCell id="a-rNxq47jJGG1cDdPVG0-146" value="" style="group" vertex="1" connectable="0" parent="a-rNxq47jJGG1cDdPVG0-164">
          <mxGeometry x="422.2816901408451" y="187.5" width="88.30985915492958" height="12.75" as="geometry" />
        </mxCell>
        <mxCell id="a-rNxq47jJGG1cDdPVG0-147" value="" style="verticalLabelPosition=bottom;verticalAlign=top;html=1;shape=mxgraph.basic.star;fillColor=#FFFF33;" vertex="1" parent="a-rNxq47jJGG1cDdPVG0-146">
          <mxGeometry width="17.661971830985916" height="12.75" as="geometry" />
        </mxCell>
        <mxCell id="a-rNxq47jJGG1cDdPVG0-148" value="" style="verticalLabelPosition=bottom;verticalAlign=top;html=1;shape=mxgraph.basic.star;fillColor=#FFFF33;" vertex="1" parent="a-rNxq47jJGG1cDdPVG0-146">
          <mxGeometry x="17.661971830985916" width="17.661971830985916" height="12.75" as="geometry" />
        </mxCell>
        <mxCell id="a-rNxq47jJGG1cDdPVG0-149" value="" style="verticalLabelPosition=bottom;verticalAlign=top;html=1;shape=mxgraph.basic.star;fillColor=#FFFF33;" vertex="1" parent="a-rNxq47jJGG1cDdPVG0-146">
          <mxGeometry x="35.32394366197183" width="17.661971830985916" height="12.75" as="geometry" />
        </mxCell>
        <mxCell id="a-rNxq47jJGG1cDdPVG0-150" value="" style="verticalLabelPosition=bottom;verticalAlign=top;html=1;shape=mxgraph.basic.star;fillColor=#FFFF33;" vertex="1" parent="a-rNxq47jJGG1cDdPVG0-146">
          <mxGeometry x="52.98591549295775" width="17.661971830985916" height="12.75" as="geometry" />
        </mxCell>
        <mxCell id="a-rNxq47jJGG1cDdPVG0-151" value="" style="verticalLabelPosition=bottom;verticalAlign=top;html=1;shape=mxgraph.basic.star;fillColor=#FFFF33;" vertex="1" parent="a-rNxq47jJGG1cDdPVG0-146">
          <mxGeometry x="70.64788732394366" width="17.661971830985916" height="12.75" as="geometry" />
        </mxCell>
        <mxCell id="a-rNxq47jJGG1cDdPVG0-152" value="" style="group" vertex="1" connectable="0" parent="a-rNxq47jJGG1cDdPVG0-164">
          <mxGeometry x="425.4929577464789" y="240" width="88.30985915492958" height="12.75" as="geometry" />
        </mxCell>
        <mxCell id="a-rNxq47jJGG1cDdPVG0-153" value="" style="verticalLabelPosition=bottom;verticalAlign=top;html=1;shape=mxgraph.basic.star;fillColor=#FFFF33;" vertex="1" parent="a-rNxq47jJGG1cDdPVG0-152">
          <mxGeometry width="17.661971830985916" height="12.75" as="geometry" />
        </mxCell>
        <mxCell id="a-rNxq47jJGG1cDdPVG0-154" value="" style="verticalLabelPosition=bottom;verticalAlign=top;html=1;shape=mxgraph.basic.star;fillColor=#FFFF33;" vertex="1" parent="a-rNxq47jJGG1cDdPVG0-152">
          <mxGeometry x="17.661971830985916" width="17.661971830985916" height="12.75" as="geometry" />
        </mxCell>
        <mxCell id="a-rNxq47jJGG1cDdPVG0-155" value="" style="verticalLabelPosition=bottom;verticalAlign=top;html=1;shape=mxgraph.basic.star;fillColor=#FFFF33;" vertex="1" parent="a-rNxq47jJGG1cDdPVG0-152">
          <mxGeometry x="35.32394366197183" width="17.661971830985916" height="12.75" as="geometry" />
        </mxCell>
        <mxCell id="a-rNxq47jJGG1cDdPVG0-156" value="" style="verticalLabelPosition=bottom;verticalAlign=top;html=1;shape=mxgraph.basic.star;fillColor=#FFFF33;" vertex="1" parent="a-rNxq47jJGG1cDdPVG0-152">
          <mxGeometry x="52.98591549295775" width="17.661971830985916" height="12.75" as="geometry" />
        </mxCell>
        <mxCell id="a-rNxq47jJGG1cDdPVG0-157" value="" style="verticalLabelPosition=bottom;verticalAlign=top;html=1;shape=mxgraph.basic.star;fillColor=#FFFF33;" vertex="1" parent="a-rNxq47jJGG1cDdPVG0-152">
          <mxGeometry x="70.64788732394366" width="17.661971830985916" height="12.75" as="geometry" />
        </mxCell>
        <mxCell id="a-rNxq47jJGG1cDdPVG0-158" value="About: Example" style="text;html=1;align=center;verticalAlign=middle;resizable=0;points=[];autosize=1;strokeColor=none;fillColor=none;" vertex="1" parent="a-rNxq47jJGG1cDdPVG0-164">
          <mxGeometry x="24.084507042253524" y="125.25" width="110" height="30" as="geometry" />
        </mxCell>
        <mxCell id="a-rNxq47jJGG1cDdPVG0-159" value="About: Example" style="text;html=1;align=center;verticalAlign=middle;resizable=0;points=[];autosize=1;strokeColor=none;fillColor=none;" vertex="1" parent="a-rNxq47jJGG1cDdPVG0-164">
          <mxGeometry x="24.084507042253524" y="176.25" width="110" height="30" as="geometry" />
        </mxCell>
        <mxCell id="a-rNxq47jJGG1cDdPVG0-160" value="About: Example" style="text;html=1;align=center;verticalAlign=middle;resizable=0;points=[];autosize=1;strokeColor=none;fillColor=none;" vertex="1" parent="a-rNxq47jJGG1cDdPVG0-164">
          <mxGeometry x="24.084507042253524" y="232.5" width="110" height="30" as="geometry" />
        </mxCell>
        <mxCell id="a-rNxq47jJGG1cDdPVG0-161" value="Description: waiduhaw diah idaihdwahdhawiudwaj odwahduahwd uhaw hdhwa i iwa h iua&amp;nbsp;" style="text;html=1;align=center;verticalAlign=middle;whiteSpace=wrap;rounded=0;" vertex="1" parent="a-rNxq47jJGG1cDdPVG0-164">
          <mxGeometry x="136.47887323943664" y="147" width="264.92957746478874" height="22.5" as="geometry" />
        </mxCell>
        <mxCell id="a-rNxq47jJGG1cDdPVG0-162" value="Description: waiduhaw diah idaihdwahdhawiudwaj odwahduahwd uhaw hdhwa i iwa h iua&amp;nbsp;" style="text;html=1;align=center;verticalAlign=middle;whiteSpace=wrap;rounded=0;" vertex="1" parent="a-rNxq47jJGG1cDdPVG0-164">
          <mxGeometry x="136.47887323943664" y="198.75" width="264.92957746478874" height="22.5" as="geometry" />
        </mxCell>
        <mxCell id="a-rNxq47jJGG1cDdPVG0-163" value="Description: waiduhaw diah idaihdwahdhawiudwaj odwahduahwd uhaw hdhwa i iwa h iua&amp;nbsp;" style="text;html=1;align=center;verticalAlign=middle;whiteSpace=wrap;rounded=0;" vertex="1" parent="a-rNxq47jJGG1cDdPVG0-164">
          <mxGeometry x="152.53521126760563" y="252.75" width="264.92957746478874" height="22.5" as="geometry" />
        </mxCell>
      </root>
    </mxGraphModel>
  </diagram>
</mxfile>
